<svg id="Capa_1" data-name="Capa 1" xmlns="http://www.w3.org/2000/svg" viewBox="0 0 451.27 421.16"><path d="M363.48,126.18a84.22,84.22,0,0,0-67.87,34.25,84.4,84.4,0,0,0-137.85,2.95,84.38,84.38,0,1,0,0,94.36,84.4,84.4,0,0,0,137.85,2.95,84.38,84.38,0,1,0,67.87-134.51ZM89,259.6a50.21,50.21,0,1,1,50.21-50.2A50.2,50.2,0,0,1,89,259.6Zm139.94,0a50.21,50.21,0,1,1,50.21-50.2A50.2,50.2,0,0,1,228.89,259.6Zm135.75,0a50.21,50.21,0,1,1,50.21-50.2A50.2,50.2,0,0,1,364.64,259.6Z"/><path d="M99.31,100.83a52.33,52.33,0,0,0,7.54-7.19c1.07-1.19,2.11-2.4,3.16-3.61,28.91-33.2,72.42-53.22,116.44-53.55A158.12,158.12,0,0,1,343.69,88.26c4.65,5.19,9.14,10.83,15.33,14s14.76,3.15,19.21-2.22c3.07-3.7,3.46-9.07,2.12-13.68s-4.21-8.61-7.16-12.4C338.08,28.93,281,1.87,223.88,3.23S111,34.33,78.1,81a24.63,24.63,0,0,0-3.58,6.48c-2.44,7.72,3.8,15.22,11.13,16.7,2,.4,3.45.9,5.51.5A18.42,18.42,0,0,0,97,102.4C97.76,101.92,98.55,101.39,99.31,100.83Z"/><path d="M100.86,320.4l.28.21c4.32,3.15,7.7,7.37,11.24,11.37,29.34,33.14,73.31,52.84,117.58,52.65S318,364.38,347.1,331c5.84-6.71,12.35-14.56,21.25-14.68,9.24-.12,16.84,10.52,13.74,19.22a26.68,26.68,0,0,1-3.73,6.48c-29.46,41-76.57,68.75-126.67,74.73a181.23,181.23,0,0,1-55.34-2,187.79,187.79,0,0,1-52.54-18.45A191.36,191.36,0,0,1,97.91,362a224.07,224.07,0,0,1-15.52-17.36c-3.25-4-6.49-8.5-6.87-13.66a14.12,14.12,0,0,1,10.6-14.35C91.21,315.5,96.59,317.38,100.86,320.4Z"/><path d="M158.73,117.21l.07,0a44.5,44.5,0,0,0,7.52-5.62A95.7,95.7,0,0,1,292.85,115a17.28,17.28,0,0,0,4,3.13,10,10,0,0,0,4.55.94c7.22-.07,13.51-6.46,14.48-13.62a8,8,0,0,0-.37-4.25,9.69,9.69,0,0,0-2.15-2.87A120.84,120.84,0,0,0,150.12,89c-3.6,3-7.15,6.28-8.77,10.65a15.23,15.23,0,0,0,2.38,14.11C147.44,118.66,153.19,120.08,158.73,117.21Z"/><path d="M159.15,300.17a50.78,50.78,0,0,1,7.91,5.79,95.79,95.79,0,0,0,126.68-4,15.54,15.54,0,0,1,3.91-3,9.69,9.69,0,0,1,5-.69,15.73,15.73,0,0,1,13.8,14.23,7.91,7.91,0,0,1-.56,3.79,10.2,10.2,0,0,1-2.1,2.76,120.16,120.16,0,0,1-135.55,26.13,120,120,0,0,1-24.47-14.5c-1.56-1.19-3-2.68-4.52-3.82s-3.15-1.92-4.44-3.49a16.76,16.76,0,0,1-3.59-10.81,16,16,0,0,1,.46-3.7c1.16-4.79,4.62-9.41,9.47-10.29A12.16,12.16,0,0,1,159.15,300.17Z"/></svg>